<svg xmlns="http://www.w3.org/2000/svg" width="880" height="426" viewBox="0 0 880 426" role="img" aria-label="Exit IPs by country, top 10 of 148"><text x="28.0" y="52" fill="#f0f6fc" font-family="ui-sans-serif, -apple-system, Segoe UI, Helvetica, Arial, sans-serif" font-size="30" font-weight="600" text-anchor="start">2,364</text><text x="28.0" y="76" fill="#9198a1" font-family="ui-sans-serif, -apple-system, Segoe UI, Helvetica, Arial, sans-serif" font-size="13" font-weight="400" text-anchor="start">exit IPs</text><text x="234.0" y="52" fill="#f0f6fc" font-family="ui-sans-serif, -apple-system, Segoe UI, Helvetica, Arial, sans-serif" font-size="30" font-weight="600" text-anchor="start">1,009</text><text x="234.0" y="76" fill="#9198a1" font-family="ui-sans-serif, -apple-system, Segoe UI, Helvetica, Arial, sans-serif" font-size="13" font-weight="400" text-anchor="start">entry IPs</text><text x="440.0" y="52" fill="#f0f6fc" font-family="ui-sans-serif, -apple-system, Segoe UI, Helvetica, Arial, sans-serif" font-size="30" font-weight="600" text-anchor="start">954</text><text x="440.0" y="76" fill="#9198a1" font-family="ui-sans-serif, -apple-system, Segoe UI, Helvetica, Arial, sans-serif" font-size="13" font-weight="400" text-anchor="start">hostnames</text><text x="646.0" y="52" fill="#f0f6fc" font-family="ui-sans-serif, -apple-system, Segoe UI, Helvetica, Arial, sans-serif" font-size="30" font-weight="600" text-anchor="start">5,681</text><text x="646.0" y="76" fill="#9198a1" font-family="ui-sans-serif, -apple-system, Segoe UI, Helvetica, Arial, sans-serif" font-size="13" font-weight="400" text-anchor="start">ASN ranges</text><line x1="28" y1="100" x2="852" y2="100" stroke="#3d444d" stroke-width="1"/><text x="28" y="130" fill="#9198a1" font-family="ui-sans-serif, -apple-system, Segoe UI, Helvetica, Arial, sans-serif" font-size="13" font-weight="400" text-anchor="start">Exit IPs by country, top 10 of 148</text><text x="28" y="163" fill="#f0f6fc" font-family="ui-sans-serif, -apple-system, Segoe UI, Helvetica, Arial, sans-serif" font-size="13" font-weight="400" text-anchor="start">Netherlands</text><g fill="#8b6dff"><path d="M132 152h654a4 4 0 0 1 4 4v5a4 4 0 0 1 -4 4h-654z"/></g><text x="800" y="163" fill="#9198a1" font-family="ui-sans-serif, -apple-system, Segoe UI, Helvetica, Arial, sans-serif" font-size="12" font-weight="400" text-anchor="start">644</text><text x="28" y="189" fill="#f0f6fc" font-family="ui-sans-serif, -apple-system, Segoe UI, Helvetica, Arial, sans-serif" font-size="13" font-weight="400" text-anchor="start">United States</text><g fill="#8b6dff"><path d="M132 178h584a4 4 0 0 1 4 4v5a4 4 0 0 1 -4 4h-584z"/></g><text x="730" y="189" fill="#9198a1" font-family="ui-sans-serif, -apple-system, Segoe UI, Helvetica, Arial, sans-serif" font-size="12" font-weight="400" text-anchor="start">575</text><text x="28" y="215" fill="#f0f6fc" font-family="ui-sans-serif, -apple-system, Segoe UI, Helvetica, Arial, sans-serif" font-size="13" font-weight="400" text-anchor="start">Japan</text><g fill="#8b6dff"><path d="M132 204h258a4 4 0 0 1 4 4v5a4 4 0 0 1 -4 4h-258z"/></g><text x="404" y="215" fill="#9198a1" font-family="ui-sans-serif, -apple-system, Segoe UI, Helvetica, Arial, sans-serif" font-size="12" font-weight="400" text-anchor="start">256</text><text x="28" y="241" fill="#f0f6fc" font-family="ui-sans-serif, -apple-system, Segoe UI, Helvetica, Arial, sans-serif" font-size="13" font-weight="400" text-anchor="start">Romania</text><g fill="#8b6dff"><path d="M132 230h154a4 4 0 0 1 4 4v5a4 4 0 0 1 -4 4h-154z"/></g><text x="300" y="241" fill="#9198a1" font-family="ui-sans-serif, -apple-system, Segoe UI, Helvetica, Arial, sans-serif" font-size="12" font-weight="400" text-anchor="start">155</text><text x="28" y="267" fill="#f0f6fc" font-family="ui-sans-serif, -apple-system, Segoe UI, Helvetica, Arial, sans-serif" font-size="13" font-weight="400" text-anchor="start">Canada</text><g fill="#8b6dff"><path d="M132 256h98a4 4 0 0 1 4 4v5a4 4 0 0 1 -4 4h-98z"/></g><text x="244" y="267" fill="#9198a1" font-family="ui-sans-serif, -apple-system, Segoe UI, Helvetica, Arial, sans-serif" font-size="12" font-weight="400" text-anchor="start">100</text><text x="28" y="293" fill="#f0f6fc" font-family="ui-sans-serif, -apple-system, Segoe UI, Helvetica, Arial, sans-serif" font-size="13" font-weight="400" text-anchor="start">Australia</text><g fill="#8b6dff"><path d="M132 282h52a4 4 0 0 1 4 4v5a4 4 0 0 1 -4 4h-52z"/></g><text x="198" y="293" fill="#9198a1" font-family="ui-sans-serif, -apple-system, Segoe UI, Helvetica, Arial, sans-serif" font-size="12" font-weight="400" text-anchor="start">55</text><text x="28" y="319" fill="#f0f6fc" font-family="ui-sans-serif, -apple-system, Segoe UI, Helvetica, Arial, sans-serif" font-size="13" font-weight="400" text-anchor="start">United Kingdom</text><g fill="#8b6dff"><path d="M132 308h49a4 4 0 0 1 4 4v5a4 4 0 0 1 -4 4h-49z"/></g><text x="195" y="319" fill="#9198a1" font-family="ui-sans-serif, -apple-system, Segoe UI, Helvetica, Arial, sans-serif" font-size="12" font-weight="400" text-anchor="start">52</text><text x="28" y="345" fill="#f0f6fc" font-family="ui-sans-serif, -apple-system, Segoe UI, Helvetica, Arial, sans-serif" font-size="13" font-weight="400" text-anchor="start">Mexico</text><g fill="#8b6dff"><path d="M132 334h41a4 4 0 0 1 4 4v5a4 4 0 0 1 -4 4h-41z"/></g><text x="187" y="345" fill="#9198a1" font-family="ui-sans-serif, -apple-system, Segoe UI, Helvetica, Arial, sans-serif" font-size="12" font-weight="400" text-anchor="start">44</text><text x="28" y="371" fill="#f0f6fc" font-family="ui-sans-serif, -apple-system, Segoe UI, Helvetica, Arial, sans-serif" font-size="13" font-weight="400" text-anchor="start">Singapore</text><g fill="#8b6dff"><path d="M132 360h35a4 4 0 0 1 4 4v5a4 4 0 0 1 -4 4h-35z"/></g><text x="181" y="371" fill="#9198a1" font-family="ui-sans-serif, -apple-system, Segoe UI, Helvetica, Arial, sans-serif" font-size="12" font-weight="400" text-anchor="start">38</text><text x="28" y="397" fill="#f0f6fc" font-family="ui-sans-serif, -apple-system, Segoe UI, Helvetica, Arial, sans-serif" font-size="13" font-weight="400" text-anchor="start">France</text><g fill="#8b6dff"><path d="M132 386h31a4 4 0 0 1 4 4v5a4 4 0 0 1 -4 4h-31z"/></g><text x="177" y="397" fill="#9198a1" font-family="ui-sans-serif, -apple-system, Segoe UI, Helvetica, Arial, sans-serif" font-size="12" font-weight="400" text-anchor="start">34</text></svg>
