<svg xmlns="http://www.w3.org/2000/svg" width="880" height="426" viewBox="0 0 880 426" role="img" aria-label="Exit IPs by country, top 10 of 148"><text x="28.0" y="52" fill="#1f2328" font-family="ui-sans-serif, -apple-system, Segoe UI, Helvetica, Arial, sans-serif" font-size="30" font-weight="600" text-anchor="start">2,380</text><text x="28.0" y="76" fill="#59636e" font-family="ui-sans-serif, -apple-system, Segoe UI, Helvetica, Arial, sans-serif" font-size="13" font-weight="400" text-anchor="start">exit IPs</text><text x="234.0" y="52" fill="#1f2328" font-family="ui-sans-serif, -apple-system, Segoe UI, Helvetica, Arial, sans-serif" font-size="30" font-weight="600" text-anchor="start">1,009</text><text x="234.0" y="76" fill="#59636e" font-family="ui-sans-serif, -apple-system, Segoe UI, Helvetica, Arial, sans-serif" font-size="13" font-weight="400" text-anchor="start">entry IPs</text><text x="440.0" y="52" fill="#1f2328" font-family="ui-sans-serif, -apple-system, Segoe UI, Helvetica, Arial, sans-serif" font-size="30" font-weight="600" text-anchor="start">954</text><text x="440.0" y="76" fill="#59636e" font-family="ui-sans-serif, -apple-system, Segoe UI, Helvetica, Arial, sans-serif" font-size="13" font-weight="400" text-anchor="start">hostnames</text><text x="646.0" y="52" fill="#1f2328" font-family="ui-sans-serif, -apple-system, Segoe UI, Helvetica, Arial, sans-serif" font-size="30" font-weight="600" text-anchor="start">5,679</text><text x="646.0" y="76" fill="#59636e" font-family="ui-sans-serif, -apple-system, Segoe UI, Helvetica, Arial, sans-serif" font-size="13" font-weight="400" text-anchor="start">ASN ranges</text><line x1="28" y1="100" x2="852" y2="100" stroke="#d1d9e0" stroke-width="1"/><text x="28" y="130" fill="#59636e" font-family="ui-sans-serif, -apple-system, Segoe UI, Helvetica, Arial, sans-serif" font-size="13" font-weight="400" text-anchor="start">Exit IPs by country, top 10 of 148</text><text x="28" y="163" fill="#1f2328" font-family="ui-sans-serif, -apple-system, Segoe UI, Helvetica, Arial, sans-serif" font-size="13" font-weight="400" text-anchor="start">United States</text><g fill="#6d4aff"><path d="M132 152h654a4 4 0 0 1 4 4v5a4 4 0 0 1 -4 4h-654z"/></g><text x="800" y="163" fill="#59636e" font-family="ui-sans-serif, -apple-system, Segoe UI, Helvetica, Arial, sans-serif" font-size="12" font-weight="400" text-anchor="start">603</text><text x="28" y="189" fill="#1f2328" font-family="ui-sans-serif, -apple-system, Segoe UI, Helvetica, Arial, sans-serif" font-size="13" font-weight="400" text-anchor="start">Netherlands</text><g fill="#6d4aff"><path d="M132 178h536a4 4 0 0 1 4 4v5a4 4 0 0 1 -4 4h-536z"/></g><text x="682" y="189" fill="#59636e" font-family="ui-sans-serif, -apple-system, Segoe UI, Helvetica, Arial, sans-serif" font-size="12" font-weight="400" text-anchor="start">495</text><text x="28" y="215" fill="#1f2328" font-family="ui-sans-serif, -apple-system, Segoe UI, Helvetica, Arial, sans-serif" font-size="13" font-weight="400" text-anchor="start">Japan</text><g fill="#6d4aff"><path d="M132 204h271a4 4 0 0 1 4 4v5a4 4 0 0 1 -4 4h-271z"/></g><text x="417" y="215" fill="#59636e" font-family="ui-sans-serif, -apple-system, Segoe UI, Helvetica, Arial, sans-serif" font-size="12" font-weight="400" text-anchor="start">252</text><text x="28" y="241" fill="#1f2328" font-family="ui-sans-serif, -apple-system, Segoe UI, Helvetica, Arial, sans-serif" font-size="13" font-weight="400" text-anchor="start">Romania</text><g fill="#6d4aff"><path d="M132 230h161a4 4 0 0 1 4 4v5a4 4 0 0 1 -4 4h-161z"/></g><text x="307" y="241" fill="#59636e" font-family="ui-sans-serif, -apple-system, Segoe UI, Helvetica, Arial, sans-serif" font-size="12" font-weight="400" text-anchor="start">151</text><text x="28" y="267" fill="#1f2328" font-family="ui-sans-serif, -apple-system, Segoe UI, Helvetica, Arial, sans-serif" font-size="13" font-weight="400" text-anchor="start">Canada</text><g fill="#6d4aff"><path d="M132 256h105a4 4 0 0 1 4 4v5a4 4 0 0 1 -4 4h-105z"/></g><text x="251" y="267" fill="#59636e" font-family="ui-sans-serif, -apple-system, Segoe UI, Helvetica, Arial, sans-serif" font-size="12" font-weight="400" text-anchor="start">100</text><text x="28" y="293" fill="#1f2328" font-family="ui-sans-serif, -apple-system, Segoe UI, Helvetica, Arial, sans-serif" font-size="13" font-weight="400" text-anchor="start">Australia</text><g fill="#6d4aff"><path d="M132 282h56a4 4 0 0 1 4 4v5a4 4 0 0 1 -4 4h-56z"/></g><text x="202" y="293" fill="#59636e" font-family="ui-sans-serif, -apple-system, Segoe UI, Helvetica, Arial, sans-serif" font-size="12" font-weight="400" text-anchor="start">55</text><text x="28" y="319" fill="#1f2328" font-family="ui-sans-serif, -apple-system, Segoe UI, Helvetica, Arial, sans-serif" font-size="13" font-weight="400" text-anchor="start">United Kingdom</text><g fill="#6d4aff"><path d="M132 308h53a4 4 0 0 1 4 4v5a4 4 0 0 1 -4 4h-53z"/></g><text x="199" y="319" fill="#59636e" font-family="ui-sans-serif, -apple-system, Segoe UI, Helvetica, Arial, sans-serif" font-size="12" font-weight="400" text-anchor="start">52</text><text x="28" y="345" fill="#1f2328" font-family="ui-sans-serif, -apple-system, Segoe UI, Helvetica, Arial, sans-serif" font-size="13" font-weight="400" text-anchor="start">Mexico</text><g fill="#6d4aff"><path d="M132 334h51a4 4 0 0 1 4 4v5a4 4 0 0 1 -4 4h-51z"/></g><text x="197" y="345" fill="#59636e" font-family="ui-sans-serif, -apple-system, Segoe UI, Helvetica, Arial, sans-serif" font-size="12" font-weight="400" text-anchor="start">50</text><text x="28" y="371" fill="#1f2328" font-family="ui-sans-serif, -apple-system, Segoe UI, Helvetica, Arial, sans-serif" font-size="13" font-weight="400" text-anchor="start">Singapore</text><g fill="#6d4aff"><path d="M132 360h37a4 4 0 0 1 4 4v5a4 4 0 0 1 -4 4h-37z"/></g><text x="183" y="371" fill="#59636e" font-family="ui-sans-serif, -apple-system, Segoe UI, Helvetica, Arial, sans-serif" font-size="12" font-weight="400" text-anchor="start">38</text><text x="28" y="397" fill="#1f2328" font-family="ui-sans-serif, -apple-system, Segoe UI, Helvetica, Arial, sans-serif" font-size="13" font-weight="400" text-anchor="start">France</text><g fill="#6d4aff"><path d="M132 386h33a4 4 0 0 1 4 4v5a4 4 0 0 1 -4 4h-33z"/></g><text x="179" y="397" fill="#59636e" font-family="ui-sans-serif, -apple-system, Segoe UI, Helvetica, Arial, sans-serif" font-size="12" font-weight="400" text-anchor="start">34</text></svg>
